# xmcd
#
# Track frame offsets:
#	150
#	11757
#	27167
#	43170
#	60150
#	74132
#	89487
#	105282
#	120445
#	135675
#	150670
#	166457
#
# Disc length: 2605 seconds
#
# Revision: 0
# Processed by: cddbd v1.5.2PL0 Copyright (c) Steve Scherf et al.
# Submitted via: audiograbber 1.83.01
#
DISCID=990a2b0c
DTITLE=The Royal Philharmonic Orchestra - The Greatest Hits Of Neil Diamond [SB
DTITLE=M]
DYEAR=2000
DGENRE=Symphonic Rock
TTITLE0=Ouverture: You Don't Bring Me Flowers - Solitary Man - Beautiful Noise
TTITLE1=Holly Holy
TTITLE2=Medley: Cracklin' Rosie - Brother Loves Travelling Salvation Show
TTITLE3=Play Me
TTITLE4=Forever In Blue Jeans
TTITLE5=Sweet Caroline
TTITLE6=September Morning
TTITLE7=America
TTITLE8=I Am I Said
TTITLE9=Beautiful Noise
TTITLE10=You Don't Bring Me Flowers
TTITLE11=Medley: Song Sung Blue - Shilo - Kentucky Woman - Song Sung Blue [repr
TTITLE11=ise]
EXTD=
EXTT0=
EXTT1=
EXTT2=
EXTT3=
EXTT4=
EXTT5=
EXTT6=
EXTT7=
EXTT8=
EXTT9=
EXTT10=
EXTT11=
PLAYORDER=
